<svg id="visual" viewBox="0 0 900 600" width="900" height="600" xmlns="http://www.w3.org/2000/svg" xmlns:xlink="http://www.w3.org/1999/xlink" version="1.1"><path d="M0 49L100 49L100 55L200 55L200 49L300 49L300 55L400 55L400 61L500 61L500 61L600 61L600 55L700 55L700 73L800 73L800 49L900 49L900 73L900 0L900 0L800 0L800 0L700 0L700 0L600 0L600 0L500 0L500 0L400 0L400 0L300 0L300 0L200 0L200 0L100 0L100 0L0 0Z" fill="#fa7268"></path><path d="M0 109L100 109L100 133L200 133L200 121L300 121L300 121L400 121L400 139L500 139L500 103L600 103L600 109L700 109L700 151L800 151L800 127L900 127L900 139L900 71L900 47L800 47L800 71L700 71L700 53L600 53L600 59L500 59L500 59L400 59L400 53L300 53L300 47L200 47L200 53L100 53L100 47L0 47Z" fill="#ed6266"></path><path d="M0 271L100 271L100 319L200 319L200 241L300 241L300 289L400 289L400 301L500 301L500 217L600 217L600 241L700 241L700 301L800 301L800 277L900 277L900 277L900 137L900 125L800 125L800 149L700 149L700 107L600 107L600 101L500 101L500 137L400 137L400 119L300 119L300 119L200 119L200 131L100 131L100 107L0 107Z" fill="#df5265"></path><path d="M0 355L100 355L100 409L200 409L200 301L300 301L300 379L400 379L400 367L500 367L500 283L600 283L600 301L700 301L700 379L800 379L800 349L900 349L900 355L900 275L900 275L800 275L800 299L700 299L700 239L600 239L600 215L500 215L500 299L400 299L400 287L300 287L300 239L200 239L200 317L100 317L100 269L0 269Z" fill="#d04263"></path><path d="M0 493L100 493L100 535L200 535L200 481L300 481L300 481L400 481L400 505L500 505L500 475L600 475L600 529L700 529L700 505L800 505L800 535L900 535L900 487L900 353L900 347L800 347L800 377L700 377L700 299L600 299L600 281L500 281L500 365L400 365L400 377L300 377L300 299L200 299L200 407L100 407L100 353L0 353Z" fill="#c13361"></path><path d="M0 601L100 601L100 601L200 601L200 601L300 601L300 601L400 601L400 601L500 601L500 601L600 601L600 601L700 601L700 601L800 601L800 601L900 601L900 601L900 485L900 533L800 533L800 503L700 503L700 527L600 527L600 473L500 473L500 503L400 503L400 479L300 479L300 479L200 479L200 533L100 533L100 491L0 491Z" fill="#b0235f"></path></svg>